<svg width="174" height="42" viewBox="0 0 174 42" fill="none" xmlns="http://www.w3.org/2000/svg">
<path d="M29.96 8.736C30.648 8.736 31.208 8.944 31.64 9.36C32.088 9.76 32.312 10.24 32.312 10.8C32.312 11.968 31.64 12.84 30.296 13.416C29.24 13.848 27.856 14.064 26.144 14.064C25.84 14.064 25.608 14.056 25.448 14.04L21.968 27.216C21.856 27.6 21.8 27.952 21.8 28.272C21.8 28.688 21.944 28.992 22.232 29.184C22.536 29.36 23.048 29.472 23.768 29.52L23.672 30C22.552 29.952 20.88 29.928 18.656 29.928C16.528 29.928 14.96 29.952 13.952 30L14.048 29.52C14.736 29.488 15.264 29.408 15.632 29.28C16.016 29.136 16.312 28.912 16.52 28.608C16.744 28.288 16.936 27.824 17.096 27.216L20.696 13.704C19.576 13.624 18.664 13.584 17.96 13.584C16.696 13.584 15.784 13.72 15.224 13.992C15.848 14.072 16.36 14.32 16.76 14.736C17.16 15.152 17.36 15.68 17.36 16.32C17.36 17.008 17.136 17.584 16.688 18.048C16.24 18.496 15.688 18.72 15.032 18.72C14.36 18.72 13.832 18.496 13.448 18.048C13.064 17.584 12.872 17.032 12.872 16.392C12.872 15.88 13.008 15.384 13.28 14.904C13.552 14.424 14 14.032 14.624 13.728C15.408 13.344 16.48 13.152 17.84 13.152C18.976 13.152 20.568 13.232 22.616 13.392C24.44 13.52 25.696 13.584 26.384 13.584C27.232 13.584 27.952 13.52 28.544 13.392C28.272 13.136 28.04 12.816 27.848 12.432C27.672 12.048 27.584 11.616 27.584 11.136C27.584 10.416 27.8 9.84 28.232 9.408C28.68 8.96 29.256 8.736 29.96 8.736Z" fill="#EF431D"/>
<path d="M43.3115 15.072C44.0635 15.072 44.6795 15.336 45.1595 15.864C45.6395 16.392 45.8795 17.056 45.8795 17.856C45.8795 18.688 45.6235 19.36 45.1115 19.872C44.6155 20.384 43.9995 20.64 43.2635 20.64C42.6555 20.64 42.1755 20.464 41.8235 20.112C41.4715 19.744 41.2955 19.248 41.2955 18.624C41.2955 17.904 41.5275 17.272 41.9915 16.728C42.4555 16.184 43.0555 15.832 43.7915 15.672C43.6635 15.576 43.4555 15.528 43.1675 15.528C42.4955 15.528 41.8395 15.856 41.1995 16.512C40.0955 17.648 38.9995 19.672 37.9115 22.584L36.6635 27.456C36.5195 28.064 36.4475 28.456 36.4475 28.632C36.4475 28.968 36.5595 29.192 36.7835 29.304C37.0235 29.416 37.4555 29.488 38.0795 29.52L37.9595 30C36.9515 29.952 35.4715 29.928 33.5195 29.928C31.5835 29.928 30.1435 29.952 29.1995 30L29.3195 29.52C29.9115 29.488 30.3515 29.424 30.6395 29.328C30.9275 29.216 31.1515 29.024 31.3115 28.752C31.4875 28.48 31.6475 28.048 31.7915 27.456L32.7515 23.784C32.4635 21.656 32.1675 20.096 31.8635 19.104C31.5595 18.096 31.1755 17.592 30.7115 17.592C30.3915 17.592 30.1435 17.856 29.9675 18.384L29.5835 19.488H29.0555L29.6555 17.736C29.9435 16.888 30.3915 16.232 30.9995 15.768C31.6075 15.304 32.3755 15.072 33.3035 15.072C34.2315 15.072 34.9755 15.24 35.5355 15.576C36.0955 15.912 36.5355 16.464 36.8555 17.232C37.1755 17.984 37.4555 19.04 37.6955 20.4L37.8635 21.36C38.2475 20.368 38.6715 19.456 39.1355 18.624C39.6155 17.792 40.0475 17.136 40.4315 16.656C40.8315 16.16 41.2795 15.776 41.7755 15.504C42.2715 15.216 42.7835 15.072 43.3115 15.072ZM51.0363 27.456C50.9243 27.856 50.8683 28.208 50.8683 28.512C50.8683 28.848 50.9883 29.088 51.2283 29.232C51.4683 29.376 51.8923 29.472 52.5003 29.52L52.4043 30C51.3003 29.952 49.8763 29.928 48.1323 29.928C46.1163 29.928 44.6283 29.952 43.6683 30L43.7643 29.52C44.3403 29.488 44.7723 29.424 45.0603 29.328C45.3483 29.232 45.5723 29.048 45.7323 28.776C45.9083 28.504 46.0763 28.064 46.2363 27.456L48.7323 17.952C48.8763 17.408 48.9483 17.032 48.9483 16.824C48.9483 16.52 48.8283 16.296 48.5883 16.152C48.3483 15.992 47.9323 15.904 47.3403 15.888L47.4603 15.408C48.3883 15.456 49.7483 15.48 51.5403 15.48L53.8923 15.456C54.2123 15.44 54.6363 15.432 55.1643 15.432C59.4363 15.432 61.5723 16.512 61.5723 18.672C61.5723 19.648 61.1643 20.544 60.3483 21.36C59.5483 22.176 58.4123 22.832 56.9403 23.328C55.4843 23.824 53.8123 24.096 51.9243 24.144L51.0363 27.456ZM55.2363 15.888C54.7723 15.888 54.4363 16.032 54.2283 16.32C54.0363 16.592 53.8283 17.136 53.6043 17.952L52.0683 23.64C53.5883 23.512 54.7083 22.88 55.4283 21.744C56.1483 20.608 56.5083 19.288 56.5083 17.784C56.5083 17.096 56.4123 16.608 56.2203 16.32C56.0443 16.032 55.7163 15.888 55.2363 15.888ZM71.9133 15.48C74.2173 15.48 75.8733 15.456 76.8813 15.408C76.4813 16.464 76.1773 17.408 75.9693 18.24C75.8733 18.592 75.7693 19.088 75.6573 19.728H75.1293C75.1453 19.552 75.1533 19.312 75.1533 19.008C75.1533 17.92 74.8973 17.144 74.3853 16.68C73.8733 16.2 73.1533 15.96 72.2253 15.96H72.1533C71.5933 15.96 71.1693 16.008 70.8813 16.104C70.6093 16.184 70.3933 16.36 70.2333 16.632C70.0733 16.904 69.9133 17.344 69.7533 17.952L68.5533 22.416H68.9133C69.6653 22.416 70.3533 22.152 70.9773 21.624C71.6013 21.096 72.0573 20.464 72.3453 19.728H72.8733C72.6173 20.512 72.4013 21.272 72.2253 22.008L72.0573 22.656C71.9453 23.088 71.8413 23.52 71.7453 23.952C71.6493 24.384 71.5453 24.928 71.4333 25.584H70.9053C70.9053 24.896 70.7213 24.28 70.3533 23.736C69.9853 23.176 69.3933 22.896 68.5773 22.896H68.4333L67.2093 27.456C67.0653 28.064 66.9933 28.456 66.9933 28.632C66.9933 28.968 67.1053 29.192 67.3293 29.304C67.5693 29.4 67.9853 29.448 68.5773 29.448H68.8893C70.0733 29.448 71.0813 29.128 71.9133 28.488C72.7613 27.832 73.5053 26.736 74.1453 25.2H74.6733C74.5453 25.552 74.3773 26.128 74.1693 26.928C73.8973 27.872 73.6893 28.896 73.5453 30C72.4573 29.952 70.6493 29.928 68.1213 29.928C64.4093 29.928 61.6253 29.952 59.7693 30L59.8653 29.52C60.4413 29.488 60.8733 29.424 61.1613 29.328C61.4493 29.232 61.6733 29.048 61.8333 28.776C62.0093 28.504 62.1773 28.064 62.3373 27.456L64.8813 17.952C65.0093 17.408 65.0733 17.024 65.0733 16.8C65.0733 16.448 64.9533 16.216 64.7133 16.104C64.4893 15.992 64.0733 15.92 63.4653 15.888L63.5853 15.408C65.4253 15.456 68.2013 15.48 71.9133 15.48ZM101.539 19.032C101.539 20.76 101.123 22.464 100.291 24.144C99.4587 25.824 98.1307 27.224 96.3067 28.344C94.4827 29.448 92.1787 30 89.3947 30C88.9627 30 88.6027 29.992 88.3147 29.976C87.4187 29.944 86.5147 29.928 85.6027 29.928C83.8427 29.928 82.4827 29.952 81.5227 30L81.5947 29.52C82.1387 29.488 82.5467 29.424 82.8187 29.328C83.1067 29.232 83.3307 29.048 83.4907 28.776C83.6667 28.488 83.8347 28.048 83.9947 27.456L87.1387 15.552C87.2347 15.184 87.2827 14.872 87.2827 14.616C87.2827 14.264 87.1627 14 86.9227 13.824C86.6987 13.632 86.3067 13.52 85.7467 13.488L85.8187 13.008C86.6347 13.056 87.8747 13.08 89.5387 13.08H90.4267C91.7707 13.032 92.9547 13.008 93.9787 13.008C96.3787 13.008 98.2347 13.52 99.5467 14.544C100.875 15.552 101.539 17.048 101.539 19.032ZM89.5867 29.568C90.9947 29.568 92.2267 28.984 93.2827 27.816C94.3547 26.648 95.1707 25.184 95.7307 23.424C96.3067 21.648 96.5947 19.896 96.5947 18.168C96.5947 15.016 95.5787 13.44 93.5467 13.44C93.1947 13.44 92.9387 13.488 92.7787 13.584C92.6187 13.68 92.4987 13.84 92.4187 14.064C92.3387 14.288 92.2027 14.768 92.0107 15.504L88.8667 27.504C88.6747 28.24 88.5787 28.72 88.5787 28.944C88.5787 29.184 88.6507 29.352 88.7947 29.448C88.9387 29.528 89.2027 29.568 89.5867 29.568ZM112.765 15.48C115.069 15.48 116.725 15.456 117.733 15.408C117.333 16.464 117.029 17.408 116.821 18.24C116.725 18.592 116.621 19.088 116.509 19.728H115.981C115.997 19.552 116.005 19.312 116.005 19.008C116.005 17.92 115.749 17.144 115.237 16.68C114.725 16.2 114.005 15.96 113.077 15.96H113.005C112.445 15.96 112.021 16.008 111.733 16.104C111.461 16.184 111.245 16.36 111.085 16.632C110.925 16.904 110.765 17.344 110.605 17.952L109.405 22.416H109.765C110.517 22.416 111.205 22.152 111.829 21.624C112.453 21.096 112.909 20.464 113.197 19.728H113.725C113.469 20.512 113.253 21.272 113.077 22.008L112.909 22.656C112.797 23.088 112.693 23.52 112.597 23.952C112.501 24.384 112.397 24.928 112.285 25.584H111.757C111.757 24.896 111.573 24.28 111.205 23.736C110.837 23.176 110.245 22.896 109.429 22.896H109.285L108.061 27.456C107.917 28.064 107.845 28.456 107.845 28.632C107.845 28.968 107.957 29.192 108.181 29.304C108.421 29.4 108.837 29.448 109.429 29.448H109.741C110.925 29.448 111.933 29.128 112.765 28.488C113.613 27.832 114.357 26.736 114.997 25.2H115.525C115.397 25.552 115.229 26.128 115.021 26.928C114.749 27.872 114.541 28.896 114.397 30C113.309 29.952 111.501 29.928 108.973 29.928C105.261 29.928 102.477 29.952 100.621 30L100.717 29.52C101.293 29.488 101.725 29.424 102.013 29.328C102.301 29.232 102.525 29.048 102.685 28.776C102.861 28.504 103.029 28.064 103.189 27.456L105.733 17.952C105.861 17.408 105.925 17.024 105.925 16.8C105.925 16.448 105.805 16.216 105.565 16.104C105.341 15.992 104.925 15.92 104.317 15.888L104.437 15.408C106.277 15.456 109.053 15.48 112.765 15.48ZM135.65 11.136C136.354 11.136 136.922 11.344 137.354 11.76C137.802 12.16 138.026 12.64 138.026 13.2C138.026 13.664 137.906 14.104 137.666 14.52C137.442 14.92 137.042 15.296 136.466 15.648C135.586 16.192 134.09 16.464 131.978 16.464C131.626 16.464 131.362 16.456 131.186 16.44L128.09 27.216C127.946 27.696 127.874 28.08 127.874 28.368C127.874 28.768 128.018 29.056 128.306 29.232C128.61 29.392 129.138 29.488 129.89 29.52L129.794 30C128.674 29.952 127.002 29.928 124.778 29.928C122.65 29.928 121.082 29.952 120.074 30L120.17 29.52C120.858 29.488 121.386 29.408 121.754 29.28C122.122 29.136 122.41 28.912 122.618 28.608C122.842 28.288 123.042 27.824 123.218 27.216L126.434 15.936C125.122 15.808 124.202 15.744 123.674 15.744C122.41 15.744 121.482 15.96 120.89 16.392C121.53 16.472 122.05 16.72 122.45 17.136C122.866 17.552 123.074 18.08 123.074 18.72C123.074 19.408 122.85 19.984 122.402 20.448C121.954 20.896 121.402 21.12 120.746 21.12C120.09 21.12 119.562 20.896 119.162 20.448C118.778 19.984 118.586 19.44 118.586 18.816C118.586 18.32 118.722 17.832 118.994 17.352C119.282 16.856 119.714 16.432 120.29 16.08C121.154 15.568 122.314 15.312 123.77 15.312C124.682 15.312 126.13 15.424 128.114 15.648C130.002 15.872 131.354 15.984 132.17 15.984C133.258 15.984 134.034 15.904 134.498 15.744C134.146 15.52 133.858 15.208 133.634 14.808C133.41 14.408 133.298 13.968 133.298 13.488C133.298 12.816 133.506 12.256 133.922 11.808C134.354 11.36 134.93 11.136 135.65 11.136ZM146.004 27.984C146.068 28.512 146.212 28.896 146.436 29.136C146.66 29.376 146.908 29.504 147.18 29.52L147.06 30C146.132 29.952 144.78 29.928 143.004 29.928C141.148 29.928 139.788 29.952 138.924 30L139.044 29.52C139.796 29.488 140.332 29.368 140.652 29.16C140.972 28.952 141.132 28.56 141.132 27.984C141.132 27.776 141.124 27.616 141.108 27.504L140.748 24.528H135.876L134.004 26.856C133.588 27.368 133.38 27.816 133.38 28.2C133.38 28.872 134.124 29.312 135.612 29.52L135.516 30C134.092 29.952 132.956 29.928 132.108 29.928C131.564 29.928 131.044 29.952 130.548 30L130.644 29.52C131.092 29.328 131.5 29.048 131.868 28.68C132.22 28.312 132.788 27.64 133.572 26.664L142.716 15.24C142.924 15.256 143.228 15.264 143.628 15.264C144.028 15.264 144.324 15.256 144.516 15.24L146.004 27.984ZM140.7 24.048L140.124 19.248L136.26 24.048H140.7ZM155.053 27.456C154.909 28.064 154.837 28.456 154.837 28.632C154.837 28.968 154.949 29.192 155.173 29.304C155.413 29.416 155.845 29.488 156.469 29.52L156.373 30C155.349 29.952 153.853 29.928 151.885 29.928C149.981 29.928 148.565 29.952 147.637 30L147.757 29.52C148.317 29.488 148.733 29.424 149.005 29.328C149.293 29.232 149.517 29.048 149.677 28.776C149.853 28.488 150.021 28.048 150.181 27.456L152.701 17.952C152.829 17.408 152.893 17.024 152.893 16.8C152.893 16.448 152.773 16.216 152.533 16.104C152.309 15.992 151.893 15.92 151.285 15.888L151.405 15.408C152.285 15.456 153.701 15.48 155.653 15.48C157.461 15.48 158.965 15.456 160.165 15.408L160.045 15.888C159.453 15.92 159.013 15.984 158.725 16.08C158.453 16.176 158.229 16.36 158.053 16.632C157.893 16.904 157.733 17.344 157.573 17.952L155.053 27.456ZM172.739 24.96C172.579 25.392 172.387 26.048 172.163 26.928C171.891 27.872 171.683 28.896 171.539 30C170.451 29.952 168.643 29.928 166.115 29.928C162.339 29.928 159.523 29.952 157.667 30L157.763 29.52C158.339 29.488 158.771 29.424 159.059 29.328C159.347 29.232 159.571 29.048 159.731 28.776C159.907 28.504 160.075 28.064 160.235 27.456L162.827 17.952C162.955 17.408 163.019 17.024 163.019 16.8C163.019 16.448 162.899 16.216 162.659 16.104C162.435 15.992 162.019 15.92 161.411 15.888L161.531 15.408C162.475 15.456 163.987 15.48 166.067 15.48C167.731 15.48 169.131 15.456 170.267 15.408L170.147 15.888C169.555 15.92 169.115 15.984 168.827 16.08C168.555 16.176 168.331 16.36 168.155 16.632C167.995 16.904 167.835 17.344 167.675 17.952L165.083 27.456C164.971 27.92 164.915 28.312 164.915 28.632C164.915 28.968 165.011 29.192 165.203 29.304C165.395 29.4 165.731 29.448 166.211 29.448H166.883C167.811 29.448 168.771 29.088 169.763 28.368C170.771 27.632 171.587 26.496 172.211 24.96H172.739Z" fill="#332C21"/>
<circle cx="21" cy="21" r="20.5" stroke="#332C21" stroke-dasharray="2 2"/>
</svg>
